<svg width="93" height="36" viewBox="0 0 93 36" fill="none" xmlns="http://www.w3.org/2000/svg">
<g clip-path="url(#clip0_2087_477)">
<path d="M44.8891 15.5192C44.8891 16.9292 44.0419 18.0643 42.7839 18.8986L39.2396 21.2173H44.6628V23.1414H36.646V20.8227L41.1476 17.7312C42.0272 17.1232 42.5414 16.5185 42.5414 15.6841C42.5414 14.714 41.8299 14.0187 40.8274 14.0187C39.8249 14.0187 39.0262 14.9145 38.8742 16.1239L36.6169 15.6841C36.8886 13.5336 38.6769 11.9717 40.8598 11.9717C43.0426 11.9717 44.8891 13.456 44.8891 15.516" fill="white"/>
<path d="M50.3738 12.3533H53.6109V19.3093H55.1179V21.2173H53.6109V23.1414H51.3149V21.2173H46.1633V19.8235L50.377 12.3533H50.3738ZM48.676 19.3093H51.3116L51.2955 14.4617L48.6728 19.3093H48.676Z" fill="white"/>
<path d="M56.6151 19.5972H58.9047C58.9047 20.7646 59.9492 21.5957 61.4045 21.5957C62.6624 21.5957 63.4191 20.9748 63.4191 20.2019C63.4191 17.9156 56.7218 19.8397 56.7218 15.5516C56.7218 13.4302 58.5231 11.975 61.1296 11.975C63.7361 11.975 65.644 13.5499 65.644 15.7165H63.4321C63.4482 14.6558 62.491 13.8991 61.191 13.8991C59.9945 13.8991 59.1925 14.4586 59.1925 15.2185C59.1925 17.4143 65.906 15.5225 65.906 19.8397C65.906 21.9902 64.0724 23.5231 61.3301 23.5231C58.5878 23.5231 56.6183 21.8706 56.6183 19.5972" fill="white"/>
<path d="M69.6927 12.3533H67.1477V23.1414H69.6927V12.3533Z" fill="white"/>
<path d="M71.2871 12.3533H74.2428L76.7717 16.0948L79.362 12.3533H82.363L78.6958 17.4434L82.4536 23.1414H79.4526L76.7717 18.8695L74.149 23.1414H71.1965L74.7861 17.4434L71.2871 12.3533Z" fill="white"/>
<path d="M88.1937 23.1415H85.377L88.2261 19.277C87.8477 19.3837 87.5146 19.4128 87.2397 19.4128C85.1636 19.4128 83.7084 17.9576 83.7084 15.9138C83.7084 13.5951 85.542 11.975 88.1776 11.975C90.8132 11.975 92.54 13.5951 92.54 15.778C92.54 16.6576 92.1326 17.7021 91.434 18.6432L88.1905 23.1447L88.1937 23.1415ZM88.087 14.0349C87.0263 14.0349 86.2534 14.824 86.2534 15.9138C86.2534 17.0036 87.0263 17.7312 88.087 17.7312C89.2092 17.7312 89.995 16.9875 89.995 15.9138C89.995 14.8402 89.2059 14.0188 88.087 14.0349Z" fill="white"/>
</g>
<path d="M30.6375 19.1347V18.7272C30.6375 17.3755 29.7353 16.5605 28.0278 16.5605H25.182C24.4673 16.5605 23.8011 16.9324 23.4293 17.5436C21.2367 21.1235 13.8053 33.2537 13.8053 33.2537C15.2767 34.0266 17.0586 33.9975 18.5073 33.1599L28.1992 27.5654C29.7029 26.6987 30.6375 25.0818 30.6375 23.3452V19.1379V19.1347Z" fill="#ED1C24"/>
<path d="M28.1701 15.4158C28.238 15.4158 28.3027 15.4158 28.3674 15.4222H28.7619C29.6803 15.4222 30.298 15.8426 30.6376 16.3924V12.1528C30.6376 10.4162 29.703 8.79931 28.1992 7.9294L19.4905 2.90076L15.6195 14.4618C15.4611 14.9307 15.8103 15.4158 16.3051 15.4158H28.1701Z" fill="#F8B032"/>
<path d="M1.50372 16.3147V16.7222C1.50372 18.074 2.40597 18.8889 4.11344 18.8889H6.956C7.67068 18.8889 8.33686 18.517 8.71199 17.9058C10.9045 14.3259 18.3359 2.19573 18.3359 2.19573C16.8645 1.42284 15.0827 1.45194 13.6339 2.28951L3.93882 7.88408C2.43507 8.75075 1.50049 10.3677 1.50049 12.1043V16.3115L1.50372 16.3147Z" fill="#207DE2"/>
<path d="M3.97122 20.0336C3.9033 20.0336 3.83863 20.0336 3.77395 20.0272H3.37942C2.46101 20.0272 1.84334 19.6068 1.50378 19.057V23.2966C1.50378 25.0332 2.43837 26.6501 3.94211 27.52L12.6509 32.5487L16.5218 20.9876C16.6803 20.5187 16.331 20.0336 15.8362 20.0336H3.97122Z" fill="#79B1EE"/>
<defs>
<clipPath id="clip0_2087_477">
<rect width="92.54" height="35.4948" fill="white"/>
</clipPath>
</defs>
</svg>
