<svg width="143" height="54" viewBox="0 0 143 54" fill="none" xmlns="http://www.w3.org/2000/svg">
<path d="M23.1715 0L1.72009 11.9245H44.6231L23.1715 0Z" fill="#78B0EC"/>
<path d="M23.6193 24.6305L42.8445 13.5976H4.3938L23.6193 24.6305Z" fill="#207CE0"/>
<path d="M45.719 39.3256C45.7297 31.1886 45.7406 23.0515 45.7512 14.9147C38.6449 27.1236 31.5384 39.3327 24.4322 51.5416L45.719 39.3256Z" fill="#F2767B"/>
<path d="M24.5534 26.7991L24.2009 48.4815L43.1545 15.653L24.5534 26.7991Z" fill="#EC2931"/>
<path fill-rule="evenodd" clip-rule="evenodd" d="M0 12.8631L23.1649 26.3712L0 39.8793V12.8631ZM0.843944 14.3321V38.4102L21.4895 26.3712L0.843944 14.3321Z" fill="#EFBB5C"/>
<path fill-rule="evenodd" clip-rule="evenodd" d="M23.169 26.367V53.3832L0.00439453 39.8751L23.169 26.367ZM1.67974 39.8751L22.325 51.9142V27.8361L1.67974 39.8751Z" fill="#F4CC8C"/>
<path d="M60.0223 33.9436C58.6945 33.2309 57.6509 32.2425 56.891 30.9783C56.1313 29.7142 55.7512 28.2854 55.7512 26.6913C55.7512 25.0972 56.131 23.6684 56.891 22.4043C57.6506 21.1401 58.6945 20.1517 60.0223 19.4391C61.3498 18.7264 62.8428 18.3703 64.5003 18.3703C65.8968 18.3703 67.1595 18.6156 68.2877 19.106C69.416 19.5966 70.3633 20.3013 71.131 21.2208L68.7365 23.4276C67.6464 22.1711 66.2959 21.5427 64.6842 21.5427C63.6862 21.5427 62.7963 21.7611 62.0135 22.1977C61.2308 22.6342 60.6206 23.2437 60.183 24.0252C59.7454 24.8067 59.5267 25.6959 59.5267 26.6916C59.5267 27.6874 59.7454 28.5765 60.183 29.358C60.6206 30.1395 61.2308 30.7487 62.0135 31.1856C62.7963 31.6224 63.6865 31.8406 64.6842 31.8406C66.2959 31.8406 67.6464 31.2048 68.7365 29.9326L71.131 32.1394C70.3633 33.0743 69.4118 33.7869 68.2762 34.2773C67.1402 34.7677 65.8737 35.013 64.4773 35.013C62.8348 35.013 61.3494 34.6568 60.022 33.9442L60.0223 33.9436Z" fill="#42508F"/>
<path d="M76.5763 33.9324C75.2331 33.2124 74.1818 32.2198 73.4221 30.9556C72.6625 29.6915 72.2823 28.27 72.2823 26.6916C72.2823 25.1133 72.6622 23.6918 73.4221 22.4277C74.1818 21.1635 75.2331 20.1713 76.5763 19.4509C77.9191 18.7309 79.4272 18.3706 81.1005 18.3706C82.7738 18.3706 84.2777 18.7309 85.6132 19.4509C86.9487 20.1716 87.9996 21.1635 88.7676 22.4277C89.535 23.6918 89.9187 25.1136 89.9187 26.6916C89.9187 28.2697 89.5347 29.6915 88.7676 30.9556C88 32.2198 86.9487 33.2124 85.6132 33.9324C84.2777 34.653 82.7735 35.0127 81.1005 35.0127C79.4275 35.0127 77.9191 34.6527 76.5763 33.9324ZM83.6791 31.1853C84.4465 30.7484 85.0489 30.1392 85.4865 29.3577C85.9241 28.5762 86.1428 27.6874 86.1428 26.6913C86.1428 25.6952 85.9241 24.8064 85.4865 24.0249C85.0489 23.2434 84.4465 22.6343 83.6791 22.1974C82.9114 21.7605 82.052 21.5424 81.1005 21.5424C80.149 21.5424 79.2893 21.7608 78.5219 22.1974C77.7542 22.6343 77.1521 23.2434 76.7145 24.0249C76.277 24.8064 76.0582 25.6956 76.0582 26.6913C76.0582 27.6871 76.277 28.5762 76.7145 29.3577C77.1521 30.1392 77.7542 30.7484 78.5219 31.1853C79.2893 31.6221 80.1487 31.8403 81.1005 31.8403C82.0523 31.8403 82.9114 31.6218 83.6791 31.1853Z" fill="#42508F"/>
<path d="M107.393 34.7369L107.37 25.0825L102.627 33.0359H100.946L96.2265 25.2894V34.7369H92.7269V18.6461H95.8121L101.844 28.6454L107.785 18.6461H110.847L110.893 34.7369H107.393Z" fill="#42508F"/>
<path d="M127.193 31.7483V34.7366H114.715V18.6457H126.894V21.634H118.421V25.128H125.904V28.0243H118.421V31.7483H127.193Z" fill="#42508F"/>
<path d="M133.502 21.6801H128.344V18.6457H142.389V21.6801H137.232V34.7366H133.502V21.6801H133.502Z" fill="#42508F"/>
</svg>
