<svg width="184" height="54" viewBox="0 0 184 54" fill="none" xmlns="http://www.w3.org/2000/svg">
<path d="M47.0228 16.7431C46.9862 17.2314 47.7399 17.7005 47.7418 16.5508C47.7418 16.5508 47.0612 16.2548 47.0228 16.7431Z" fill="#FDFDFD"/>
<path d="M49.1574 17.2131C49.5631 17.14 49.342 16.3844 49.342 16.3844C49.342 16.3844 49.1305 16.0249 48.7614 16.3018C48.3923 16.5786 48.7518 17.2861 49.1574 17.2131Z" fill="#FDFDFD"/>
<path d="M47.8497 17.6179C47.5536 18.2985 48.4841 18.235 48.4841 18.235C48.4841 18.235 49.6626 18.9637 49.5338 17.7948C49.5338 17.7948 48.9994 17.8486 48.7052 17.6102C48.4111 17.3699 48.1438 16.9373 47.8497 17.6179Z" fill="#FDFDFD"/>
<path d="M50.0049 18.422C50.0049 18.422 50.1145 18.7989 50.1145 19.2603C50.1145 19.7198 50.6105 20.385 51.0161 20.0812C51.4218 19.7774 51.6986 19.2257 51.0354 18.3413C51.0354 18.3413 50.2817 17.4108 50.0049 18.424V18.422Z" fill="#FDFDFD"/>
<path d="M10.2942 29.3171C10.5056 31.6569 11.0324 33.9755 11.8879 36.2249C12.1379 36.8862 12.4147 37.5418 12.73 38.1916C13.4241 39.6759 14.2719 41.1082 15.2755 42.4847C16.5405 42.2405 17.8517 41.9387 19.2071 41.5792C18.34 40.3776 17.5941 39.1241 16.9769 37.8321C16.6809 37.2284 16.4117 36.6171 16.1733 35.9999C12.1321 25.6162 15.287 13.4061 24.6364 6.40227C27.2203 4.47395 30.0541 3.11855 32.9764 2.2957C32.9053 2.53409 32.8091 3.0032 33.0014 3.3108C33.2648 3.74722 33.457 4.00485 32.6553 4.54508C31.8594 5.09109 30.2329 6.30614 30.9712 7.3597C31.7037 8.41902 32.0113 7.21743 32.1593 6.64643C32.3074 6.07543 33.2706 4.83346 33.5224 5.62556C33.7723 6.41572 32.9514 5.70823 32.2689 7.94607C31.5806 10.182 30.4886 8.87082 30.3675 10.8626C30.2445 12.8486 31.8767 12.2641 31.8133 12.9447C31.7498 13.6253 31.2346 13.5484 31.7556 14.2482C32.2824 14.948 32.2881 14.4289 31.9671 15.3018C31.646 16.1765 30.6559 17.5434 32.8918 18.92C32.8918 18.92 32.5265 19.8832 31.7806 20.0447C31.0346 20.1985 30.1733 19.2872 29.1332 20.1216C28.0931 20.9637 27.9451 21.5289 27.6875 22.6478C27.4298 23.7591 26.6916 23.8494 26.8396 24.6588C26.9877 25.4682 27.9124 26.7928 26.8396 27.4215C25.7611 28.0579 23.7808 29.2537 23.5944 29.8497C23.4079 30.4476 23.1502 30.1842 22.5985 30.5956C22.0467 31.0071 22.239 32.1894 21.5641 32.7489C20.8951 33.3141 19.682 33.3007 19.4301 34.3485C19.2686 35.029 19.3532 35.2098 19.3282 35.4597C19.3148 35.5943 19.2648 35.7481 19.1225 36.0192C18.7303 36.7517 18.6015 37.1304 18.8207 37.5168C18.8264 37.5303 18.8341 37.5418 18.8399 37.5553C19.0783 37.9475 19.5205 38.5377 19.4186 39.0203C19.3167 39.4951 20.3126 39.4451 20.2991 38.8145C20.2933 38.1916 19.7781 37.8898 20.5048 37.4015C20.7682 37.2208 21.0066 37.1323 21.1931 37.0554C21.5276 36.9131 21.7006 36.8055 21.5853 36.3037C21.3988 35.5193 21.8352 35.2559 22.0352 35.4482C22.2409 35.6404 22.8907 35.898 22.8253 35.204C22.8061 34.9983 22.7869 34.8368 22.7869 34.7157C22.7677 34.4273 22.8119 34.3888 23.0118 34.6003C23.0253 34.6138 23.0368 34.633 23.0503 34.6522C23.3329 34.9925 23.8789 35.9307 25.1074 36.1038C25.2304 36.1287 25.3516 36.1422 25.4861 36.1422C27.0607 36.1749 28.6987 35.9807 28.6987 35.9807C28.6987 35.9807 29.4639 35.6923 29.9196 35.0675C30.3694 34.4446 30.9212 34.7214 31.5653 35.5039C32.2074 36.2806 32.4708 35.8634 32.4708 35.8634C32.4708 35.8634 32.4458 37.1419 35.2988 34.7195C35.2988 34.7195 35.6391 34.3139 36.6427 34.6099C37.1176 34.3523 37.5944 34.0966 38.075 33.8332C38.1135 33.5122 38.0423 33.1834 37.8751 33.0181C37.8751 33.0181 38.2807 32.2606 37.9846 31.7838C37.902 31.6492 37.7597 31.4877 37.5924 31.3089C37.2002 30.8783 36.6985 30.3649 36.6408 29.9151C36.635 29.8247 36.6158 29.7286 36.6023 29.6382C36.5004 29.0864 36.314 28.552 36.314 28.552C36.314 28.552 38.6268 27.112 36.7831 25.2683C36.7831 25.2683 37.8751 23.6495 36.9176 22.7555C35.9602 21.8615 35.7679 21.8307 35.8506 21.4828C35.9333 21.129 36.6081 20.1081 35.7872 19.6313C34.972 19.1488 33.9819 19.8313 33.5378 19.0084C33.1014 18.1933 32.2535 17.4473 33.0745 17.0032C33.8896 16.5591 34.7394 15.9304 33.7627 14.9345C33.7627 14.9345 33.6205 14.5808 34.3664 14.6577C35.1124 14.7288 35.4392 14.0213 35.1758 13.8156C34.9066 13.6157 33.7166 13.41 33.3705 13.0966C33.0245 12.789 32.1497 11.5412 34.0261 10.828C35.9025 10.1089 38.8133 12.7621 38.3634 13.6176C37.9077 14.4789 37.4117 14.5039 38.0039 15.2114C38.5883 15.9247 39.54 14.5808 39.54 14.5808L42.3988 15.2556C42.3988 15.2556 42.7257 15.2998 43.0679 15.2172C43.4082 15.1345 46.6015 16.2515 47.7916 15.9939C48.9739 15.7362 49.5392 15.4863 49.8352 16.4188C50.1236 17.3512 50.3101 17.6723 50.8696 17.4204C51.4348 17.1762 51.2041 19.0142 51.975 18.8988C52.7518 18.7758 53.144 18.076 52.5672 17.3051C51.9885 16.5341 53.5381 16.7533 53.4343 16.3092C53.3324 15.8728 52.2384 15.942 52.2077 15.4421C52.1827 14.948 53.6092 14.6269 52.7537 13.7137C51.8981 12.8005 51.7059 12.7755 50.4524 13.483C49.1989 14.1905 49.791 12.8274 48.3703 12.8524C46.9572 12.8774 47.5551 12.6083 47.9204 12.1007C48.2934 11.5932 48.1453 10.7838 47.6954 10.257C47.2398 9.7302 48.3318 9.03616 49.2373 9.55717C50.1505 10.084 51.3579 10.6242 51.3579 10.6242C51.3579 10.6242 50.8311 11.299 51.5059 11.6585C52.175 12.018 52.8883 11.6643 52.8883 11.6643L53.3247 12.2487C53.3247 12.2487 54.0514 12.2238 54.1725 12.3064C54.2936 12.3891 55.1684 13.6368 55.1684 13.6368C55.1684 13.6368 55.8105 14.1886 54.9627 13.9002C54.1148 13.6176 54.1148 12.9236 53.7284 13.5599C53.342 14.1963 53.6707 13.9464 53.7034 14.6712C53.7284 15.4036 54.4109 15.9247 55.0146 15.5844C55.0146 15.5844 55.4837 16.6706 56.1585 16.3419C56.8333 16.0073 56.5834 15.4479 56.5834 15.4479C56.5834 15.4479 57.1813 14.7096 56.9179 13.5907C56.6545 12.466 55.2472 10.3512 54.1475 11.1164C53.0478 11.8815 52.9402 10.5838 52.9402 10.5838C52.9402 10.5838 53.5708 10.803 54.1552 10.3646C54.7474 9.92053 53.5958 8.30751 53.1074 8.7324C52.6191 9.15728 52.7402 9.6956 52.2923 9.40721C51.8424 9.11114 51.3791 8.88043 50.885 8.44402C50.3832 8.01336 50.9042 7.39622 50.9042 7.39622C50.9042 7.39622 51.206 7.80188 51.8424 8.18639C52.473 8.57859 53.2555 8.39211 52.871 7.64616C52.4845 6.90021 52.4788 8.11526 51.4002 6.67527C51.4002 6.67527 51.2983 6.46379 51.5732 5.91009C51.8501 5.35832 50.8984 4.00869 50.114 3.95678C49.3296 3.91256 49.2527 4.42588 49.4834 4.88922C49.7141 5.35255 48.9951 5.08147 49.4315 5.73706C49.8622 6.39265 50.016 6.67527 49.7199 6.6695C49.443 6.65604 47.682 3.4896 48.0934 2.69751C48.7875 2.93591 49.468 3.18584 50.1371 3.48191C41.1722 -1.60131 29.6715 -1.23411 20.8932 5.34486C13.401 10.9491 9.68663 19.7255 10.2269 28.4136C10.2403 28.7154 10.2595 29.0115 10.298 29.3133L10.2942 29.3171Z" fill="#FDFDFD"/>
<path d="M58.887 40.1205C59.2138 39.4784 58.8543 38.7651 57.6027 37.8654C56.3492 36.9598 57.2105 36.9522 56.9856 36.4254C56.7664 35.9044 56.2858 35.5698 56.2858 35.5698C56.2858 35.5698 59.3388 34.722 54.7381 31.7267C54.7381 31.7267 53.7096 29.7407 52.2638 30.1905C50.8181 30.6404 50.895 30.9807 49.1031 29.9656C48.8071 29.7983 48.5706 29.708 48.3706 29.6888C48.1015 29.8752 47.8381 30.056 47.5747 30.2405C47.492 30.5424 47.5305 30.8577 47.5305 30.8577C47.5305 30.8577 47.6843 31.6036 46.8307 31.3787C46.5577 31.3114 46.2539 31.3345 45.954 31.4248C47.7131 29.9521 49.2704 28.418 50.5566 26.8511C27.7878 45.7421 6.62438 45.619 2.25635 44.0195C5.60351 46.0612 11.0943 46.1785 17.2888 44.9442C19.6054 47.457 22.3239 49.4353 25.2674 50.858L25.0751 50.8253C25.6461 51.0829 26.2248 51.3194 26.8035 51.5443C29.4835 52.6363 32.3231 53.2861 35.1954 53.4726C41.8724 53.9936 48.684 52.1288 54.8208 47.4647C56.7491 46.1208 58.6371 44.4193 60.3597 42.2411C60.3597 42.2411 58.5659 40.7627 58.8889 40.1205H58.887ZM48.3995 41.7066C47.8727 41.9258 46.35 42.0335 45.8944 43.583C45.4445 45.1249 45.0466 46.2881 43.8757 46.1862C42.7068 46.0843 42.0435 46.8091 42.0051 47.9857C42.0051 47.9857 40.2709 48.8277 40.1344 49.7909C39.9941 50.7541 39.1712 51.429 38.6502 51.6481C38.1235 51.8731 38.4887 51.8288 38.4887 51.8288C38.4887 51.8288 38.2119 52.0096 38.1734 52.1442C31.8482 51.7173 25.723 48.9412 21.1896 44.0156C29.3047 41.7816 38.0639 37.577 44.5602 32.5437C44.5409 32.5822 44.5179 32.6206 44.5025 32.661C44.1872 33.4704 43.6681 35.4699 43.9565 36.2331C44.2391 36.9983 45.5753 38.6998 46.277 38.6363C46.971 38.5729 47.3056 38.7843 47.3248 39.5745C47.3382 40.3705 48.9243 41.4836 48.3976 41.7085L48.3995 41.7066Z" fill="#FDFDFD"/>
<path d="M64.4338 28.5509C63.734 27.9241 62.5286 28.3106 62.4901 29.2584C62.4517 30.2062 63.4091 30.6407 63.0323 30.981C62.6536 31.3213 62.3498 31.377 62.0653 30.6118C61.7807 29.8467 61.3943 29.5621 60.7868 29.9024C60.1792 30.2427 59.5986 30.3888 59.4141 29.8371C59.2295 29.2853 58.0606 28.722 57.6915 29.9178C57.6915 29.9178 57.2031 30.8022 56.8994 30.1658C56.5956 29.5295 55.8151 27.8722 54.6077 28.9488C53.4003 30.0255 54.4404 31.029 55.5267 31.7115C56.6129 32.3941 58.1144 31.7865 58.1144 31.7865C58.1144 31.7865 58.5451 33.1304 59.4679 32.9016C59.4679 32.9016 58.7662 34.3474 59.1622 35.0279C59.1622 35.0279 58.5643 34.6127 58.149 35.2106C57.7338 35.8085 59.4641 37.0447 60.11 35.7547C60.756 34.4666 59.1084 33.1112 60.5349 33.4803C61.9614 33.8494 60.8637 35.7643 60.4772 36.168C60.0908 36.5737 58.8181 37.1793 59.9428 37.6042C61.0655 38.029 62.0422 36.7217 61.6923 37.5599C61.3424 38.3982 60.2273 38.6 60.8714 39.3825C61.5154 40.165 61.6442 40.4149 61.6442 40.4149C61.6442 40.4149 65.1663 34.4416 65.5124 28.8354C65.5124 28.8354 65.1356 29.1757 64.4358 28.549L64.4338 28.5509Z" fill="#FDFDFD"/>
<path d="M59.8024 27.3608C60.0043 27.7837 59.664 28.0971 59.3506 27.9856C59.0372 27.8741 58.2547 27.828 58.5393 28.3624C58.8238 28.8969 59.6063 30.0946 60.1869 29.4871C60.7675 28.8796 60.3811 28.3643 60.3811 28.3643C60.3811 28.3643 60.4561 27.3877 61.2289 27.2685C61.2289 27.2685 61.6807 26.8725 61.1924 26.3745C60.7041 25.8766 59.8947 26.7148 59.7736 26.6302C59.6544 26.5475 59.2314 26.0592 59.2314 26.0592C59.2314 26.0592 58.099 25.6997 58.0894 26.9147C58.0798 28.1298 59.5986 26.934 59.8024 27.3589V27.3608Z" fill="#FDFDFD"/>
<path d="M65.2051 11.1138C57.9244 20.6823 48.0233 28.3802 38.076 33.8364C37.5934 34.0998 37.1186 34.3574 36.6437 34.6131C30.6107 37.7872 24.6085 40.1385 19.21 41.5785C17.8546 41.938 16.5434 42.2399 15.2765 42.484C11.9793 43.1262 8.99935 43.378 6.49234 43.2031C-4.56809 42.4533 -0.0039552 32.8405 9.06279 27.7188C5.89443 32.0311 4.51404 38.091 12.731 38.1929C13.9134 38.2121 15.3015 38.1025 16.9145 37.8468C16.9337 37.8411 16.9587 37.8411 16.9779 37.8334C17.5893 37.7372 18.2045 37.6334 18.8217 37.5181C19.6061 37.3758 20.3962 37.222 21.1922 37.0547C22.4764 36.7856 23.7818 36.4703 25.1046 36.1031C29.0054 35.0438 33.1312 33.5326 37.5896 31.3102C45.4932 27.3709 54.4638 21.1629 65.2013 11.1138H65.2051Z" fill="#FDFDFD"/>
<path d="M72.8701 2.12769L61.2349 8.36444L66.6834 9.19306L68.2579 17.0678L72.8701 2.12769Z" fill="#FC6B00"/>
<path d="M96.721 10.1284V14.2523H89.9036V25.6992H85.7105V14.2523H78.8701V10.1284H96.7229H96.721Z" fill="#FDFDFD"/>
<path d="M102.816 25.6992H98.6455V11.0955C98.6455 10.4514 98.9916 10.1284 99.6818 10.1284H116.371C117.338 10.1284 118.138 10.263 118.767 10.5322C119.396 10.8013 119.926 11.1589 120.357 11.603C120.741 12.0029 121.043 12.4662 121.266 12.9969C121.489 13.5275 121.601 14.0831 121.601 14.6676C121.601 15.2982 121.493 15.8922 121.278 16.4536C121.062 17.015 120.678 17.4937 120.126 17.8936C120.647 18.2012 121.028 18.5934 121.266 19.0683C121.505 19.5451 121.624 20.2276 121.624 21.1177V24.2265C121.624 24.5649 121.628 24.8398 121.635 25.0551C121.643 25.2704 121.662 25.4858 121.693 25.6992H117.477C117.431 25.3627 117.408 25.0167 117.408 24.6629V21.5541C117.408 21.062 117.277 20.7101 117.015 20.4948C116.754 20.2795 116.318 20.1718 115.702 20.1718H102.814V25.6992H102.816ZM115.82 16.6247C116.112 16.6247 116.35 16.5786 116.533 16.4863C116.717 16.394 116.869 16.271 116.994 16.1172C117.194 15.8711 117.294 15.6019 117.294 15.3116C117.294 14.9579 117.179 14.6676 116.948 14.4369C116.702 14.16 116.327 14.0216 115.82 14.0216H103.162C102.931 14.0216 102.816 14.1369 102.816 14.3676V16.6247H115.82Z" fill="#FDFDFD"/>
<path d="M144.068 25.1612C144.129 25.2842 144.179 25.3996 144.218 25.5073C144.256 25.6149 144.291 25.7303 144.322 25.8533H139.623C139.592 25.7457 139.561 25.6495 139.531 25.5649C139.5 25.4803 139.469 25.3996 139.438 25.3227L138.61 23.4347H129.397L128.591 25.2996C128.561 25.3919 128.53 25.4842 128.499 25.5765C128.468 25.6688 128.445 25.761 128.43 25.8533H123.616C123.646 25.7303 123.681 25.6149 123.72 25.5073C123.758 25.3996 123.808 25.2842 123.87 25.1612L129.443 12.8146C129.889 11.8475 130.472 11.1247 131.194 10.6498C131.915 10.1749 132.838 9.93652 133.959 9.93652C135.08 9.93652 135.958 10.1749 136.689 10.6498C137.418 11.1266 138.006 11.8475 138.452 12.8146L144.072 25.1612H144.068ZM137.089 20.0011L134.693 14.4276C134.617 14.2584 134.517 14.1354 134.394 14.0585C134.27 13.9816 134.132 13.9431 133.978 13.9431C133.84 13.9431 133.709 13.9777 133.586 14.0469C133.463 14.1161 133.363 14.243 133.286 14.4276L130.914 20.0011H137.087H137.089Z" fill="#FDFDFD"/>
<path d="M155.667 10.1284C156.926 10.1284 158.027 10.3091 158.971 10.6706C159.915 11.032 160.734 11.5338 161.425 12.1798C162.207 12.9027 162.822 13.7543 163.266 14.7368C163.712 15.7192 163.935 16.7804 163.935 17.9147C163.935 18.9433 163.759 19.9027 163.405 20.7947C163.051 21.6849 162.561 22.477 161.93 23.1672C161.207 23.9496 160.333 24.5687 159.304 25.0205C158.275 25.4742 157.062 25.6992 155.665 25.6992H147.257C146.581 25.6992 146.244 25.3685 146.244 24.709V11.0955C146.244 10.4514 146.583 10.1284 147.257 10.1284H155.665H155.667ZM150.714 14.2523C150.514 14.2523 150.414 14.36 150.414 14.5753V21.2773C150.414 21.4926 150.514 21.6003 150.714 21.6003H155.667C156.403 21.6003 157.026 21.4926 157.531 21.2773C158.039 21.062 158.46 20.7697 158.798 20.4025C159.106 20.0795 159.342 19.7085 159.512 19.2855C159.681 18.8626 159.765 18.4146 159.765 17.9378C159.765 17.4149 159.662 16.9246 159.454 16.4632C159.246 16.0018 158.966 15.6038 158.614 15.2655C158.275 14.9579 157.878 14.7118 157.416 14.5272C156.955 14.3426 156.372 14.2504 155.665 14.2504H150.712L150.714 14.2523Z" fill="#FDFDFD"/>
<path d="M182.971 10.1284V14.2523L170.395 14.2523C170.149 14.2523 170.026 14.383 170.026 14.6445V16.419L182.901 16.419V19.4143L170.026 19.4143V21.3023C170.026 21.5791 170.149 21.7176 170.395 21.7176L182.971 21.7176V25.703L168.046 25.703C166.587 25.703 165.858 24.982 165.858 23.5382V12.2278C165.858 10.8302 166.594 10.1323 168.069 10.1323L182.971 10.1323V10.1284Z" fill="#FDFDFD"/>
<path d="M95.6271 32.0743H84.4859C84.2263 32.0743 84.0226 32.1013 83.8784 32.1551C83.7322 32.2089 83.615 32.282 83.5227 32.3723C83.3093 32.5857 83.2016 32.853 83.2016 33.174C83.2016 33.4951 83.3304 33.7854 83.5919 33.9988C83.6842 34.0757 83.7938 34.1334 83.9245 34.1699C84.0533 34.2084 84.2417 34.2276 84.4859 34.2276H91.2956C92.1665 34.2276 92.9047 34.3545 93.5084 34.6063C94.1121 34.8582 94.6197 35.1985 95.033 35.6272C95.4464 36.0559 95.7713 36.5443 96.0077 37.0941C96.2442 37.644 96.3634 38.2246 96.3634 38.836C96.3634 39.4012 96.2596 39.9453 96.0539 40.4644C95.8482 40.9834 95.5675 41.4506 95.2176 41.862C94.7888 42.3504 94.2582 42.7406 93.6238 43.031C92.9893 43.3213 92.2145 43.4674 91.2975 43.4674H79.2835V39.5012H90.5631C90.8841 39.5012 91.1321 39.4665 91.309 39.3973C91.4859 39.3281 91.6262 39.2339 91.7339 39.1109C91.9012 38.9129 91.9858 38.6745 91.9858 38.3995C91.9858 38.0631 91.8781 37.7882 91.6647 37.5748C91.557 37.4517 91.4244 37.3652 91.2629 37.3114C91.1014 37.2575 90.8688 37.2306 90.5631 37.2306H84.259C83.2189 37.2306 82.3826 37.1037 81.7482 36.8519C81.1137 36.6 80.5908 36.2597 80.1774 35.831C79.7641 35.4042 79.443 34.9178 79.2143 34.3756C78.9855 33.8335 78.8701 33.2413 78.8701 32.5992C78.8701 31.9571 78.9893 31.3841 79.2258 30.8343C79.4623 30.2844 79.7872 29.7942 80.2005 29.3674C80.6139 28.9387 81.133 28.5984 81.7597 28.3465C82.3865 28.0947 83.2189 27.9678 84.259 27.9678H95.6309V32.0724L95.6271 32.0743Z" fill="#FDFDFD"/>
<path d="M106.515 43.4674C105.125 43.4674 103.916 43.2424 102.893 42.7906C101.868 42.3408 100.997 41.7236 100.28 40.945C99.6536 40.2567 99.1652 39.4704 98.8134 38.5841C98.4616 37.6978 98.2866 36.7423 98.2866 35.7176C98.2866 34.5871 98.5077 33.5316 98.9518 32.5531C99.394 31.5745 100.005 30.7266 100.786 30.0076C101.474 29.3655 102.287 28.8656 103.228 28.5061C104.168 28.1466 105.264 27.9678 106.517 27.9678H109.772C111.025 27.9678 112.121 28.1466 113.061 28.5061C114.002 28.8656 114.815 29.3655 115.503 30.0076C116.284 30.7266 116.893 31.5745 117.337 32.5531C117.781 33.5316 118.002 34.5852 118.002 35.7176C118.002 36.7423 117.826 37.6978 117.476 38.5841C117.124 39.4704 116.635 40.2586 116.009 40.945C115.29 41.7236 114.419 42.3408 113.394 42.7906C112.369 43.2424 111.162 43.4674 109.772 43.4674H106.517H106.515ZM106.515 32.0724C105.811 32.0724 105.231 32.1647 104.773 32.3473C104.316 32.53 103.918 32.7761 103.581 33.0798C103.229 33.4163 102.951 33.8143 102.745 34.2718C102.539 34.7294 102.435 35.2196 102.435 35.7387C102.435 36.2117 102.52 36.6596 102.687 37.0787C102.855 37.4998 103.093 37.8689 103.399 38.19C103.735 38.5572 104.156 38.8475 104.66 39.0609C105.164 39.2743 105.783 39.382 106.517 39.382H109.772C110.506 39.382 111.125 39.2743 111.629 39.0609C112.133 38.8475 112.554 38.5572 112.89 38.19C113.196 37.8689 113.432 37.4979 113.602 37.0787C113.769 36.6577 113.854 36.2117 113.854 35.7387C113.854 35.2196 113.75 34.7294 113.544 34.2718C113.338 33.8143 113.058 33.4163 112.708 33.0798C112.371 32.7741 111.973 32.53 111.516 32.3473C111.058 32.1628 110.476 32.0724 109.774 32.0724H106.519H106.515Z" fill="#FDFDFD"/>
<path d="M136.268 43.4674H128.153C126.763 43.4674 125.554 43.2424 124.531 42.7906C123.506 42.3408 122.635 41.7236 121.918 40.945C121.291 40.2567 120.803 39.4704 120.451 38.5841C120.099 37.6978 119.924 36.7423 119.924 35.7176C119.924 34.5871 120.145 33.5316 120.59 32.5531C121.032 31.5745 121.643 30.7266 122.424 30.0076C123.112 29.3655 123.925 28.8656 124.865 28.5061C125.805 28.1466 126.901 27.9678 128.155 27.9678H136.27V32.0724H128.155C127.451 32.0724 126.87 32.1647 126.413 32.3473C125.955 32.53 125.557 32.7761 125.221 33.0798C124.869 33.4163 124.59 33.8143 124.385 34.2718C124.179 34.7294 124.075 35.2196 124.075 35.7387C124.075 36.2117 124.16 36.6596 124.327 37.0787C124.494 37.4998 124.733 37.8689 125.038 38.19C125.375 38.5572 125.796 38.8475 126.299 39.0609C126.803 39.2743 127.422 39.382 128.157 39.382H136.272V43.4635L136.268 43.4674Z" fill="#FDFDFD"/>
<path d="M142.366 27.9678V43.4655H138.194V27.9678H142.366Z" fill="#FDFDFD"/>
<path d="M164.647 42.9326C164.708 43.0556 164.757 43.169 164.797 43.2767C164.835 43.3844 164.87 43.4978 164.901 43.6208H160.223C160.192 43.5132 160.162 43.419 160.131 43.3344C160.1 43.2498 160.069 43.171 160.039 43.0941L159.214 41.2138H150.043L149.242 43.071C149.211 43.1633 149.18 43.2536 149.149 43.3459C149.119 43.4382 149.095 43.5286 149.08 43.6208H144.289C144.32 43.4978 144.354 43.3844 144.393 43.2767C144.431 43.169 144.481 43.0556 144.543 42.9326L150.091 30.6436C150.534 29.6804 151.114 28.9614 151.833 28.4884C152.55 28.0155 153.467 27.7771 154.584 27.7771C155.701 27.7771 156.574 28.0136 157.301 28.4884C158.026 28.9614 158.612 29.6804 159.054 30.6436L164.649 42.9326H164.647ZM157.701 37.7974L155.317 32.249C155.24 32.0817 155.14 31.9586 155.019 31.8817C154.896 31.8048 154.759 31.7664 154.605 31.7664C154.467 31.7664 154.338 31.801 154.215 31.8702C154.092 31.9394 153.994 32.0644 153.917 32.249L151.556 37.7974H157.701Z" fill="#FDFDFD"/>
<path d="M171.866 43.4674C170.918 43.4674 170.12 43.3636 169.47 43.1578C168.82 42.9521 168.301 42.6388 167.911 42.2177C167.521 41.7967 167.242 41.2699 167.075 40.6355C166.905 40.001 166.823 39.2647 166.823 38.4226V27.9678H170.995V38.0323C170.995 38.5976 171.089 38.984 171.281 39.1897C171.471 39.3954 171.835 39.4992 172.369 39.4992H183.122V43.4655H171.866V43.4674Z" fill="#FDFDFD"/>
</svg>
